<svg version="1.1" id="Layer_1" xmlns="http://www.w3.org/2000/svg" xmlns:xlink="http://www.w3.org/1999/xlink" x="0px" y="0px"
	 width="100%" viewBox="0 0 64 64" enable-background="new 0 0 64 64" xml:space="preserve">
<path fill="#FCFCFC" opacity="1.000000" stroke="none" 
	d="
M65.000000,40.000000 
	C65.000000,40.444336 65.000000,40.888672 64.662216,41.441658 
	C63.477177,42.984634 62.629925,44.418957 61.429085,45.869614 
	C60.354969,47.557941 59.634441,49.229931 58.950256,50.946003 
	C58.986595,50.990086 58.897194,50.918842 58.548805,50.893143 
	C56.811249,51.602043 55.422077,52.336639 53.909172,52.779701 
	C53.490364,51.927471 53.195286,51.366783 52.965046,50.574303 
	C52.998550,49.630260 52.967213,48.918011 52.836159,47.881191 
	C52.009968,47.072403 51.283489,46.588181 50.232197,46.051033 
	C46.606541,42.985828 43.305698,39.973560 40.026306,36.842827 
	C40.047749,36.724361 39.984753,36.491974 40.277405,36.183334 
	C40.376003,33.754162 40.181953,31.633631 40.001972,29.155870 
	C40.001385,27.841934 39.986729,26.885229 40.047516,25.710880 
	C40.280430,25.209217 40.514549,25.020056 41.183571,24.922621 
	C42.926750,24.627895 44.311676,24.336302 44.921017,24.208008 
	C46.239632,22.219982 46.956299,19.789429 48.294399,19.377501 
	C52.169319,18.184616 52.451939,14.732177 53.987297,12.016167 
	C54.000801,12.002186 54.026398,11.972917 54.370907,11.987750 
	C55.395924,12.061507 56.076435,12.120430 57.063011,12.329501 
	C59.143917,15.718581 60.853783,18.996613 62.756599,22.158531 
	C63.079334,22.694820 64.231194,22.732149 65.000000,23.000000 
	C65.000000,23.750000 65.000000,24.500000 64.703735,25.286289 
	C64.604988,26.881720 64.802498,28.440859 65.000000,30.000000 
	C65.000000,30.444336 65.000000,30.888672 64.658813,31.512905 
	C63.997513,32.320511 63.677406,32.948223 63.357300,33.575928 
	C63.904865,33.717285 64.452431,33.858643 65.000000,34.000000 
	C65.000000,34.444336 65.000000,34.888672 64.622391,35.599010 
	C63.533749,37.419186 61.668350,39.184189 65.000000,40.000000 
M55.054398,36.626858 
	C55.433292,37.249107 55.812187,37.871357 56.687855,39.309448 
	C56.852242,37.550526 56.924747,36.774727 56.999062,35.142357 
	C56.998814,33.428696 56.998569,31.715034 56.998470,29.413973 
	C56.914127,28.878382 56.829788,28.342791 56.625153,27.043316 
	C55.844036,28.466927 55.423050,29.234184 54.718319,30.651417 
	C54.813190,32.433922 54.908066,34.216427 55.054398,36.626858 
M55.201054,41.605240 
	C55.205276,41.213120 55.209503,40.821003 55.213726,40.428883 
	C55.051010,40.427345 54.746872,40.414879 54.746025,40.425846 
	C54.715881,40.816017 54.714130,41.208382 55.201054,41.605240 
M54.394089,25.200876 
	C54.786659,25.205086 55.179234,25.209293 55.571804,25.213501 
	C55.573376,25.050592 55.585876,24.746086 55.574944,24.745241 
	C55.184258,24.715101 54.791378,24.713352 54.394089,25.200876 
M53.210491,43.842094 
	C53.282532,44.300724 53.354572,44.759350 53.426613,45.217979 
	C53.661236,45.007931 54.115444,44.759895 54.086987,44.595356 
	C54.017315,44.192619 53.724728,43.828445 53.210491,43.842094 
M52.435741,20.704920 
	C52.706718,20.988882 52.977695,21.272844 53.248672,21.556808 
	C53.366192,21.444408 53.592094,21.240503 53.585598,21.232805 
	C53.332756,20.933336 53.058716,20.651766 52.435741,20.704920 
M48.101295,36.299892 
	C47.875580,36.607407 47.649864,36.914921 47.424149,37.222435 
	C47.750622,37.014248 48.077091,36.806057 48.101295,36.299892 
M47.370121,26.524282 
	C47.159012,26.469938 46.947899,26.415594 46.736790,26.361252 
	C46.872498,26.494873 47.008205,26.628496 47.370121,26.524282 
M46.264160,39.817234 
	C46.377468,39.973286 46.490772,40.129337 46.604084,40.285389 
	C46.581299,40.068573 46.558517,39.851761 46.264160,39.817234 
z"/>
<path fill="#FDFDFD" opacity="1.000000" stroke="none" 
	d="
M43.000000,65.000000 
	C41.933323,65.000000 40.866650,65.000000 39.729134,64.722321 
	C38.438866,64.629761 37.219433,64.814880 36.000000,65.000000 
	C34.285580,65.000000 32.571156,65.000000 30.522530,64.634293 
	C29.039030,64.032372 27.889736,63.796162 26.740440,63.559952 
	C26.826960,64.039970 26.913479,64.519981 27.000000,65.000000 
	C25.933325,65.000000 24.866648,65.000000 23.768715,64.722092 
	C22.935343,63.819996 22.170202,63.139767 21.324451,62.581696 
	C18.304237,60.588779 15.256661,58.637329 12.234828,56.331161 
	C12.171363,55.323673 12.092506,54.655220 12.027010,53.975147 
	C12.040369,53.963528 12.064740,53.937843 12.422042,53.916920 
	C15.196114,52.261913 18.498827,52.114357 19.528263,48.245380 
	C20.166256,45.847580 22.870275,45.330967 25.160791,47.400620 
	C25.402143,47.618698 26.011086,47.429958 26.794025,47.429958 
	C25.755045,46.060974 24.925879,44.968445 24.028997,43.786694 
	C25.496559,42.128147 26.795137,40.660576 28.370813,39.155632 
	C28.833605,39.135677 29.019297,39.153099 29.206982,39.502022 
	C29.444517,41.910725 29.712397,43.984962 29.902863,46.066292 
	C30.008568,47.221424 29.631020,49.194786 30.087673,49.395248 
	C31.339144,49.944633 33.200829,50.272671 34.276497,49.687511 
	C35.151817,49.211334 35.473747,47.315857 35.626110,46.001656 
	C35.892300,43.705673 35.839638,41.372726 36.118286,39.339348 
	C39.540989,43.093987 42.765999,46.564545 45.991478,50.401230 
	C45.979034,51.499794 45.966118,52.232231 45.821846,53.033043 
	C45.805191,53.082718 45.919895,53.064014 46.236782,52.937119 
	C46.694405,52.641586 46.870792,52.397194 47.248642,52.113380 
	C48.618271,52.384304 49.707386,52.637604 51.093922,53.018921 
	C52.186817,53.431919 52.982296,53.716892 53.946800,54.383621 
	C54.292885,54.980133 54.469944,55.194893 54.588470,55.760384 
	C51.121403,58.277702 47.673035,60.385864 44.337944,62.660149 
	C43.670483,63.115314 43.434784,64.203629 43.000000,65.000000 
M30.092546,56.732533 
	C30.037409,56.232986 29.982269,55.733444 29.927132,55.233894 
	C29.480309,55.348980 29.033487,55.464066 28.586666,55.579151 
	C28.889296,56.005936 29.191923,56.432716 30.092546,56.732533 
M36.392277,56.203091 
	C36.787868,56.207428 37.183456,56.211765 37.579044,56.216099 
	C37.580532,56.051983 37.593044,55.745232 37.581909,55.744370 
	C37.188271,55.713936 36.792412,55.712196 36.392277,56.203091 
M40.297726,54.897854 
	C40.551105,55.168205 40.799747,55.443645 41.070293,55.695560 
	C41.085640,55.709850 41.280621,55.531219 41.392002,55.442379 
	C41.127041,55.159515 40.862080,54.876648 40.297726,54.897854 
M25.469469,54.613415 
	C25.180973,54.880859 24.892477,55.148308 24.603983,55.415756 
	C24.707184,55.517960 24.890207,55.717678 24.901907,55.708099 
	C25.192789,55.469997 25.465567,55.209789 25.469469,54.613415 
M39.758476,46.823536 
	C39.589748,46.879467 39.421017,46.935394 39.252289,46.991322 
	C39.422211,47.045837 39.592129,47.100353 39.758476,46.823536 
z"/>
<path fill="#FCFCFC" opacity="1.000000" stroke="none" 
	d="
M1.000000,43.000000 
	C1.000000,42.250000 1.000000,41.500000 1.296415,40.716042 
	C1.395220,39.121391 1.197610,37.560696 1.000000,36.000000 
	C1.000000,34.285580 1.000000,32.571156 1.377365,30.488920 
	C2.453081,28.573435 4.346442,26.806915 1.000000,26.000000 
	C1.000000,25.250000 1.000000,24.500000 1.278221,23.743420 
	C2.179259,22.920990 2.846432,22.134890 3.417048,21.284035 
	C5.635066,17.976704 7.822418,14.648807 10.064554,11.597742 
	C10.727077,12.207781 11.346228,12.548639 12.118481,13.217520 
	C13.088311,15.405562 13.905037,17.265583 14.729799,19.143902 
	C15.733550,18.787279 16.939182,18.358929 18.403652,18.046757 
	C19.117741,18.752789 19.572994,19.342636 20.025951,20.316685 
	C21.061726,21.480371 22.099796,22.259863 23.023535,23.317894 
	C22.594856,23.843084 22.280508,24.089737 21.738058,24.338615 
	C21.238955,24.519638 21.069624,24.767868 20.719683,25.124828 
	C20.283714,25.275835 20.130024,25.387545 19.580585,25.473991 
	C16.841312,24.775867 14.497787,24.103010 11.257582,23.172705 
	C10.749399,26.303877 10.291513,29.125145 9.554693,32.161915 
	C9.451389,35.312832 10.161016,37.706188 14.323761,36.986206 
	C15.456975,36.999672 16.212208,37.004921 17.087875,37.181747 
	C17.363144,37.619164 17.594320,37.756100 17.933605,38.072495 
	C17.976891,38.587177 17.988407,38.793514 18.045744,39.324459 
	C21.202520,42.002003 20.296671,44.140781 18.000732,46.564526 
	C15.837853,48.847797 14.029219,51.466633 12.064741,53.937843 
	C12.064740,53.937843 12.040369,53.963528 11.681334,53.965401 
	C10.639654,53.913887 9.957008,53.860504 8.970549,53.653595 
	C6.907688,50.426270 5.220223,47.307377 3.334167,44.313595 
	C2.915627,43.649235 1.796532,43.426224 1.000000,43.000000 
M10.816116,41.737347 
	C10.973233,41.623039 11.130349,41.508736 11.287464,41.394428 
	C11.069107,41.417572 10.850750,41.440716 10.816116,41.737347 
M12.243216,21.176498 
	C12.411583,21.120705 12.579949,21.064911 12.748317,21.009117 
	C12.578934,20.954741 12.409551,20.900364 12.243216,21.176498 
M12.411440,45.482822 
	C12.411440,45.482822 12.523289,45.415962 12.411440,45.482822 
z"/>
<path fill="#FBFBFB" opacity="1.000000" stroke="none" 
	d="
M40.000000,1.000000 
	C40.750000,1.000000 41.500000,1.000000 42.255699,1.278327 
	C42.901760,2.161114 43.464603,2.888839 44.195885,3.348720 
	C47.381622,5.352139 50.616352,7.277653 53.803551,9.577436 
	C53.858006,10.606580 53.942200,11.289748 54.026398,11.972917 
	C54.026398,11.972917 54.000801,12.002186 53.654011,12.038528 
	C50.453194,13.757436 47.599167,15.440001 44.441784,16.971680 
	C41.553074,14.235273 39.362366,15.634437 36.846306,17.339497 
	C35.678040,17.078293 34.881931,16.983753 34.053558,16.469252 
	C33.836189,14.187790 33.651085,12.326287 33.465981,10.464786 
	C33.060349,10.509465 32.654720,10.554144 32.249092,10.598824 
	C32.137474,12.695588 32.025856,14.792354 31.582226,16.932388 
	C30.601175,16.840254 29.952137,16.704851 29.260098,16.187574 
	C29.111692,14.273151 29.006290,12.740606 28.930267,10.899184 
	C28.695108,10.074093 28.430569,9.557878 28.014137,8.739675 
	C22.639847,6.539062 19.693048,10.445331 15.865273,12.981829 
	C14.406371,12.639399 13.299625,12.317759 12.120472,11.651651 
	C12.086812,10.611387 12.125560,9.915591 12.313348,8.912221 
	C15.544740,6.862973 18.671698,5.192978 21.674879,3.324084 
	C22.340797,2.909681 22.569813,1.793208 23.000000,1.000000 
	C23.750000,1.000000 24.500000,1.000000 25.284796,1.296111 
	C26.879728,1.394815 28.439863,1.197407 30.000000,1.000000 
	C30.444445,1.000000 30.888889,1.000000 31.482803,1.299774 
	C31.948519,1.928231 32.264763,2.256913 32.581009,2.585595 
	C32.720673,2.057063 32.860336,1.528532 33.000000,1.000000 
	C34.066853,1.000000 35.133701,1.000000 36.472855,1.377610 
	C37.931030,2.007727 39.116905,2.260236 40.302780,2.512744 
	C40.201855,2.008496 40.100929,1.504248 40.000000,1.000000 
M37.738216,9.693707 
	C37.111290,9.923539 36.484367,10.153371 35.857441,10.383204 
	C36.062241,10.675400 36.267044,10.967596 36.471844,11.259792 
	C37.076794,10.717457 37.681744,10.175121 37.738216,9.693707 
M41.202000,11.606131 
	C41.206264,11.212359 41.210533,10.818589 41.214798,10.424818 
	C41.051395,10.423254 40.745972,10.410729 40.745125,10.421711 
	C40.714882,10.813569 40.713127,11.207626 41.202000,11.606131 
M45.410885,12.482822 
	C45.410885,12.482822 45.522755,12.415928 45.410885,12.482822 
z"/>
<path fill="#000000" opacity="1.000000" stroke="none" 
	d="
M43.468781,65.000000 
	C43.434784,64.203629 43.670483,63.115314 44.337944,62.660149 
	C47.673035,60.385864 51.121403,58.277702 54.903961,55.648666 
	C56.484390,53.763763 57.690792,52.341305 58.897194,50.918842 
	C58.897194,50.918842 58.986595,50.990086 59.298912,50.888992 
	C60.335045,49.143028 61.058857,47.498154 61.782669,45.853279 
	C62.629925,44.418957 63.477177,42.984634 64.662216,41.775154 
	C65.000000,49.591282 65.000000,57.182560 65.000000,65.000000 
	C57.980801,65.000000 50.959183,65.000000 43.468781,65.000000 
z"/>
<path fill="#000000" opacity="1.000000" stroke="none" 
	d="
M22.531218,1.000000 
	C22.569813,1.793208 22.340797,2.909681 21.674879,3.324084 
	C18.671698,5.192978 15.544740,6.862973 11.972625,8.892876 
	C10.995635,9.896923 10.508409,10.612742 10.021183,11.328562 
	C7.822418,14.648807 5.635066,17.976704 3.417048,21.284035 
	C2.846432,22.134890 2.179259,22.920990 1.278221,23.368420 
	C1.000000,15.740432 1.000000,8.480865 1.000000,1.000000 
	C8.019269,1.000000 15.040852,1.000000 22.531218,1.000000 
z"/>
<path fill="#000000" opacity="1.000000" stroke="none" 
	d="
M53.833290,9.231462 
	C50.616352,7.277653 47.381622,5.352139 44.195885,3.348720 
	C43.464603,2.888839 42.901760,2.161114 42.630699,1.278327 
	C50.259567,1.000000 57.519135,1.000000 65.000000,1.000000 
	C65.000000,8.019269 65.000000,15.040852 65.000000,22.531218 
	C64.231194,22.732149 63.079334,22.694820 62.756599,22.158531 
	C60.853783,18.996613 59.143917,15.718581 57.098198,11.999374 
	C55.829308,10.756554 54.831299,9.994008 53.833290,9.231462 
z"/>
<path fill="#000000" opacity="1.000000" stroke="none" 
	d="
M1.000000,43.468781 
	C1.796532,43.426224 2.915627,43.649235 3.334167,44.313595 
	C5.220223,47.307377 6.907688,50.426270 8.928095,53.985462 
	C10.199450,55.203968 11.209443,55.937080 12.219438,56.670193 
	C15.256661,58.637329 18.304237,60.588779 21.324451,62.581696 
	C22.170202,63.139767 22.935343,63.819996 23.368729,64.722092 
	C15.740432,65.000000 8.480865,65.000000 1.000000,65.000000 
	C1.000000,57.980732 1.000000,50.959148 1.000000,43.468781 
z"/>
<path fill="#949494" opacity="1.000000" stroke="none" 
	d="
M1.000000,26.399996 
	C4.346442,26.806915 2.453081,28.573435 1.377365,30.060553 
	C1.000000,28.933331 1.000000,27.866661 1.000000,26.399996 
z"/>
<path fill="#929292" opacity="1.000000" stroke="none" 
	d="
M65.000000,29.600004 
	C64.802498,28.440859 64.604988,26.881720 64.703735,25.661289 
	C65.000000,27.066669 65.000000,28.133339 65.000000,29.600004 
z"/>
<path fill="#919191" opacity="1.000000" stroke="none" 
	d="
M29.600004,1.000000 
	C28.439863,1.197407 26.879728,1.394815 25.659796,1.296111 
	C27.066669,1.000000 28.133339,1.000000 29.600004,1.000000 
z"/>
<path fill="#929292" opacity="1.000000" stroke="none" 
	d="
M65.000000,39.600006 
	C61.668350,39.184189 63.533749,37.419186 64.622391,35.932507 
	C65.000000,37.066669 65.000000,38.133339 65.000000,39.600006 
z"/>
<path fill="#949494" opacity="1.000000" stroke="none" 
	d="
M1.000000,36.399994 
	C1.197610,37.560696 1.395220,39.121391 1.296415,40.341042 
	C1.000000,38.933331 1.000000,37.866661 1.000000,36.399994 
z"/>
<path fill="#919191" opacity="1.000000" stroke="none" 
	d="
M36.375000,65.000000 
	C37.219433,64.814880 38.438866,64.629761 39.329147,64.722321 
	C38.250000,65.000000 37.500000,65.000000 36.375000,65.000000 
z"/>
<path fill="#919191" opacity="1.000000" stroke="none" 
	d="
M39.625000,1.000000 
	C40.100929,1.504248 40.201855,2.008496 40.302780,2.512744 
	C39.116905,2.260236 37.931030,2.007727 36.872578,1.377610 
	C37.750000,1.000000 38.500000,1.000000 39.625000,1.000000 
z"/>
<path fill="#949494" opacity="1.000000" stroke="none" 
	d="
M27.375000,65.000000 
	C26.913479,64.519981 26.826960,64.039970 26.740440,63.559952 
	C27.889736,63.796162 29.039030,64.032372 30.094162,64.634293 
	C29.250000,65.000000 28.500000,65.000000 27.375000,65.000000 
z"/>
<path fill="#929292" opacity="1.000000" stroke="none" 
	d="
M65.000000,33.666668 
	C64.452431,33.858643 63.904865,33.717285 63.357300,33.575928 
	C63.677406,32.948223 63.997513,32.320511 64.658813,31.846401 
	C65.000000,32.444447 65.000000,32.888889 65.000000,33.666668 
z"/>
<path fill="#919191" opacity="1.000000" stroke="none" 
	d="
M32.750000,1.000000 
	C32.860336,1.528532 32.720673,2.057063 32.581009,2.585595 
	C32.264763,2.256913 31.948519,1.928231 31.816135,1.299774 
	C32.000000,1.000000 32.500000,1.000000 32.750000,1.000000 
z"/>
<path fill="#D3956D" opacity="1.000000" stroke="none" 
	d="
M45.991013,50.035103 
	C42.765999,46.564545 39.540989,43.093987 36.247242,39.055000 
	C36.476349,37.733383 36.774189,36.980190 37.358677,36.345085 
	C38.431839,36.629211 39.218349,36.795250 40.004860,36.961288 
	C43.305698,39.973560 46.606541,42.985828 50.401421,46.343414 
	C51.575596,47.194408 52.255737,47.700085 52.935879,48.205761 
	C52.967213,48.918011 52.998550,49.630260 52.659271,50.675423 
	C51.791271,51.635857 51.293888,52.263382 50.796505,52.890903 
	C49.707386,52.637604 48.618271,52.384304 47.197861,51.814716 
	C46.574718,51.010654 46.282864,50.522877 45.991013,50.035103 
z"/>
<path fill="#C5CF6D" opacity="1.000000" stroke="none" 
	d="
M37.218464,17.506161 
	C39.362366,15.634437 41.553074,14.235273 44.470497,17.319477 
	C43.476818,20.187361 42.151070,22.556559 40.825317,24.925755 
	C40.514549,25.020056 40.280430,25.209217 39.783394,25.837824 
	C38.903416,26.742460 38.363007,27.302513 37.624840,28.003580 
	C37.172867,28.371428 37.028435,28.654308 36.996895,28.996618 
	C37.000000,29.000000 36.993500,28.992208 36.643150,28.981180 
	C35.825050,28.994921 35.357292,29.019690 34.929184,28.663593 
	C35.053635,27.521912 35.138439,26.761095 35.410568,25.860016 
	C35.802486,25.466982 35.912136,25.178135 36.009743,24.512100 
	C36.447208,22.005733 36.801781,19.840473 37.171825,17.632931 
	C37.187302,17.590647 37.218464,17.506161 37.218464,17.506161 
z"/>
<path fill="#EAEAEB" opacity="1.000000" stroke="none" 
	d="
M41.183571,24.922621 
	C42.151070,22.556559 43.476818,20.187361 44.773849,17.470366 
	C47.599167,15.440001 50.453194,13.757436 53.640503,12.052509 
	C52.451939,14.732177 52.169319,18.184616 48.294399,19.377501 
	C46.956299,19.789429 46.239632,22.219982 44.921017,24.208008 
	C44.311676,24.336302 42.926750,24.627895 41.183571,24.922621 
z"/>
<path fill="#EAEAEB" opacity="1.000000" stroke="none" 
	d="
M37.822594,27.862564 
	C38.363007,27.302513 38.903416,26.742460 39.707947,26.055466 
	C39.986729,26.885229 40.001385,27.841934 39.986061,29.474302 
	C39.630352,30.662676 39.304623,31.175386 38.583469,31.707441 
	C37.144951,31.800398 36.101856,31.874008 35.063278,31.723320 
	C35.067795,31.499018 35.159538,31.059803 35.413567,30.928703 
	C36.109566,30.195807 36.551533,29.594007 36.993500,28.992208 
	C36.993500,28.992208 37.000000,29.000000 37.247978,28.907272 
	C37.604839,28.497217 37.713718,28.179890 37.822594,27.862564 
z"/>
<path fill="#FCFCFC" opacity="1.000000" stroke="none" 
	d="
M56.998322,30.001373 
	C56.998569,31.715034 56.998814,33.428696 56.665787,35.570648 
	C55.889324,35.998936 55.446129,35.998936 55.002937,35.998932 
	C54.908066,34.216427 54.813190,32.433922 55.192886,30.326424 
	C56.111073,30.001410 56.554699,30.001392 56.998322,30.001373 
z"/>
<path fill="#ECE9E7" opacity="1.000000" stroke="none" 
	d="
M40.026306,36.842827 
	C39.218349,36.795250 38.431839,36.629211 37.140987,36.161003 
	C36.161572,35.566181 35.686497,35.273533 35.131477,34.752037 
	C34.843155,34.095768 34.634781,33.668343 34.577534,33.247509 
	C34.728664,33.254105 34.989788,33.101303 35.321381,33.105206 
	C36.092377,33.158371 36.531776,33.207630 37.203224,33.447548 
	C38.023319,33.638950 38.611362,33.639690 39.456696,33.923035 
	C39.804241,34.967751 39.894497,35.729862 39.984753,36.491974 
	C39.984753,36.491974 40.047749,36.724361 40.026306,36.842827 
z"/>
<path fill="#929292" opacity="1.000000" stroke="none" 
	d="
M58.548805,50.893143 
	C57.690792,52.341305 56.484390,53.763763 54.962494,55.297935 
	C54.469944,55.194893 54.292885,54.980133 54.031784,54.156738 
	C53.947742,53.548100 54.032906,53.071239 54.032906,53.071239 
	C55.422077,52.336639 56.811249,51.602043 58.548805,50.893143 
z"/>
<path fill="#929292" opacity="1.000000" stroke="none" 
	d="
M61.429085,45.869614 
	C61.058857,47.498154 60.335045,49.143028 59.262573,50.844910 
	C59.634441,49.229931 60.354969,47.557941 61.429085,45.869614 
z"/>
<path fill="#A7A7B0" opacity="1.000000" stroke="none" 
	d="
M40.277405,36.183334 
	C39.894497,35.729862 39.804241,34.967751 39.394844,33.747269 
	C39.075703,33.288895 39.002174,32.919323 39.002411,32.611404 
	C38.994732,32.098354 38.986813,31.893227 38.978889,31.688097 
	C39.304623,31.175386 39.630352,30.662676 39.971992,29.831532 
	C40.181953,31.633631 40.376003,33.754162 40.277405,36.183334 
z"/>
<path fill="#FBFBFB" opacity="1.000000" stroke="none" 
	d="
M53.909172,52.779701 
	C54.032906,53.071239 53.947742,53.548100 53.862759,53.774982 
	C52.982296,53.716892 52.186817,53.431919 51.093922,53.018921 
	C51.293888,52.263382 51.791271,51.635857 52.594429,50.907215 
	C53.195286,51.366783 53.490364,51.927471 53.909172,52.779701 
z"/>
<path fill="#919191" opacity="1.000000" stroke="none" 
	d="
M53.803551,9.577436 
	C54.831299,9.994008 55.829308,10.756554 56.792130,11.849226 
	C56.076435,12.120430 55.395924,12.061507 54.370907,11.987750 
	C53.942200,11.289748 53.858006,10.606580 53.803551,9.577436 
z"/>
<path fill="#FCFCFC" opacity="1.000000" stroke="none" 
	d="
M55.028667,36.312897 
	C55.446129,35.998936 55.889324,35.998936 56.664886,35.998932 
	C56.924747,36.774727 56.852242,37.550526 56.687855,39.309448 
	C55.812187,37.871357 55.433292,37.249107 55.028667,36.312897 
z"/>
<path fill="#FCFCFC" opacity="1.000000" stroke="none" 
	d="
M54.954727,41.602840 
	C54.714130,41.208382 54.715881,40.816017 54.746025,40.425846 
	C54.746872,40.414879 55.051010,40.427345 55.213730,40.428883 
	C55.209503,40.821003 55.205276,41.213120 54.954727,41.602840 
z"/>
<path fill="#FBFBFB" opacity="1.000000" stroke="none" 
	d="
M54.396446,24.954258 
	C54.791378,24.713352 55.184258,24.715101 55.574944,24.745241 
	C55.585876,24.746086 55.573376,25.050592 55.571804,25.213501 
	C55.179234,25.209293 54.786659,25.205086 54.396446,24.954258 
z"/>
<path fill="#FBFBFB" opacity="1.000000" stroke="none" 
	d="
M56.998398,29.707672 
	C56.554699,30.001392 56.111073,30.001410 55.334759,30.001434 
	C55.423050,29.234184 55.844036,28.466927 56.625153,27.043316 
	C56.829788,28.342791 56.914127,28.878382 56.998398,29.707672 
z"/>
<path fill="#FCFCFC" opacity="1.000000" stroke="none" 
	d="
M53.366173,43.645424 
	C53.724728,43.828445 54.017315,44.192619 54.086987,44.595356 
	C54.115444,44.759895 53.661236,45.007931 53.426613,45.217979 
	C53.354572,44.759350 53.282532,44.300724 53.366173,43.645424 
z"/>
<path fill="#FBFBFB" opacity="1.000000" stroke="none" 
	d="
M52.611603,20.536381 
	C53.058716,20.651766 53.332756,20.933336 53.585598,21.232805 
	C53.592094,21.240503 53.366192,21.444408 53.248672,21.556808 
	C52.977695,21.272844 52.706718,20.988882 52.611603,20.536381 
z"/>
<path fill="#FCFCFC" opacity="1.000000" stroke="none" 
	d="
M52.836159,47.881191 
	C52.255737,47.700085 51.575596,47.194408 50.726234,46.396347 
	C51.283489,46.588181 52.009968,47.072403 52.836159,47.881191 
z"/>
<path fill="#FBFBFB" opacity="1.000000" stroke="none" 
	d="
M48.252430,36.448883 
	C48.077091,36.806057 47.750622,37.014248 47.424149,37.222435 
	C47.649864,36.914921 47.875580,36.607407 48.252430,36.448883 
z"/>
<path fill="#FAFAFA" opacity="1.000000" stroke="none" 
	d="
M47.257019,26.643200 
	C47.008205,26.628496 46.872498,26.494873 46.736790,26.361252 
	C46.947899,26.415594 47.159012,26.469938 47.257019,26.643200 
z"/>
<path fill="#FBFBFB" opacity="1.000000" stroke="none" 
	d="
M46.399948,39.726089 
	C46.558517,39.851761 46.581299,40.068573 46.604080,40.285389 
	C46.490772,40.129337 46.377468,39.973286 46.399948,39.726089 
z"/>
<path fill="#67C5A5" opacity="1.000000" stroke="none" 
	d="
M35.211422,34.980881 
	C35.686497,35.273533 36.161572,35.566181 36.854336,36.042915 
	C36.774189,36.980190 36.476349,37.733383 36.049553,38.770920 
	C35.839638,41.372726 35.892300,43.705673 35.626110,46.001656 
	C35.473747,47.315857 35.151817,49.211334 34.276497,49.687511 
	C33.200829,50.272671 31.339144,49.944633 30.087673,49.395248 
	C29.631020,49.194786 30.008568,47.221424 29.902863,46.066292 
	C29.712397,43.984962 29.444517,41.910725 29.496284,39.662750 
	C30.632940,38.279629 31.482290,37.067280 32.461212,35.856663 
	C32.590786,35.858395 32.850613,35.869453 33.115112,35.820339 
	C33.615238,35.507195 33.850868,35.243164 34.367714,34.988564 
	C34.836426,34.992283 35.023926,34.986580 35.211422,34.980881 
z"/>
<path fill="#F6F6F6" opacity="1.000000" stroke="none" 
	d="
M12.422043,53.916920 
	C14.029219,51.466633 15.837853,48.847797 18.000732,46.564526 
	C20.296671,44.140781 21.202520,42.002003 18.415333,39.324150 
	C19.478271,38.998211 20.217442,38.997181 21.159775,39.257023 
	C22.913815,38.999477 24.464689,38.481060 26.277075,38.090172 
	C27.029470,38.487686 27.520353,38.757664 28.029972,39.069923 
	C28.048706,39.112206 28.093714,39.193008 28.093714,39.193008 
	C26.795137,40.660576 25.496559,42.128147 24.028997,43.786694 
	C24.925879,44.968445 25.755045,46.060974 26.794025,47.429958 
	C26.011086,47.429958 25.402143,47.618698 25.160791,47.400620 
	C22.870275,45.330967 20.166256,45.847580 19.528263,48.245380 
	C18.498827,52.114357 15.196114,52.261913 12.422043,53.916920 
z"/>
<path fill="#EBF0EE" opacity="1.000000" stroke="none" 
	d="
M32.331638,35.854931 
	C31.482290,37.067280 30.632940,38.279629 29.494289,39.331253 
	C29.019297,39.153099 28.833605,39.135677 28.370813,39.155632 
	C28.093714,39.193008 28.048706,39.112206 28.144939,38.809570 
	C28.515707,38.012783 28.790239,37.518623 29.279633,36.962746 
	C29.769838,36.743019 29.940624,36.508781 30.269123,36.051537 
	C31.030729,35.580402 31.530066,35.256050 32.100845,35.163853 
	C32.172287,35.396008 32.331638,35.854931 32.331638,35.854931 
z"/>
<path fill="#949494" opacity="1.000000" stroke="none" 
	d="
M12.234828,56.331161 
	C11.209443,55.937080 10.199450,55.203968 9.231910,54.138988 
	C9.957008,53.860504 10.639654,53.913887 11.667974,53.977020 
	C12.092506,54.655220 12.171363,55.323673 12.234828,56.331161 
z"/>
<path fill="#FBFBFB" opacity="1.000000" stroke="none" 
	d="
M29.793549,56.796017 
	C29.191923,56.432716 28.889296,56.005936 28.586666,55.579147 
	C29.033487,55.464066 29.480309,55.348980 29.927132,55.233894 
	C29.982269,55.733444 30.037409,56.232986 29.793549,56.796017 
z"/>
<path fill="#FBFBFB" opacity="1.000000" stroke="none" 
	d="
M36.394569,55.954754 
	C36.792412,55.712196 37.188271,55.713936 37.581909,55.744370 
	C37.593044,55.745232 37.580532,56.051983 37.579048,56.216099 
	C37.183456,56.211765 36.787868,56.207428 36.394569,55.954754 
z"/>
<path fill="#FBFBFB" opacity="1.000000" stroke="none" 
	d="
M45.991482,50.401230 
	C46.282864,50.522877 46.574718,51.010654 46.917351,51.797089 
	C46.870792,52.397194 46.694405,52.641586 46.217991,52.915382 
	C45.997013,53.001846 45.953205,52.964668 45.953201,52.964668 
	C45.966118,52.232231 45.979034,51.499794 45.991482,50.401230 
z"/>
<path fill="#FBFBFB" opacity="1.000000" stroke="none" 
	d="
M40.447422,54.745819 
	C40.862080,54.876648 41.127041,55.159515 41.392002,55.442379 
	C41.280621,55.531219 41.085640,55.709850 41.070293,55.695560 
	C40.799747,55.443645 40.551105,55.168205 40.447422,54.745819 
z"/>
<path fill="#FBFBFB" opacity="1.000000" stroke="none" 
	d="
M25.605515,54.783455 
	C25.465567,55.209789 25.192789,55.469997 24.901907,55.708099 
	C24.890207,55.717678 24.707184,55.517960 24.603983,55.415756 
	C24.892477,55.148308 25.180973,54.880859 25.605515,54.783455 
z"/>
<path fill="#F8F8F7" opacity="1.000000" stroke="none" 
	d="
M39.760262,46.989204 
	C39.592129,47.100353 39.422211,47.045837 39.252289,46.991325 
	C39.421017,46.935394 39.589748,46.879467 39.760262,46.989204 
z"/>
<path fill="#FBFBFB" opacity="1.000000" stroke="none" 
	d="
M46.015804,53.023582 
	C45.919895,53.064014 45.805191,53.082718 45.821846,53.033043 
	C45.953205,52.964668 45.997013,53.001846 46.015804,53.023582 
z"/>
<path fill="#D8AD6C" opacity="1.000000" stroke="none" 
	d="
M28.900888,11.208060 
	C29.006290,12.740606 29.111692,14.273151 29.260391,16.490229 
	C29.546686,17.478968 29.789686,17.783175 30.022148,18.456963 
	C30.380262,20.522224 30.748913,22.217905 31.106594,24.160900 
	C31.095627,24.408213 31.187227,24.894781 31.222548,25.126118 
	C31.365187,25.668550 31.565775,25.898165 31.864183,26.423798 
	C31.950026,27.551691 32.031315,28.302086 32.109077,29.303833 
	C32.129753,29.721012 32.153961,29.886841 32.207520,30.252625 
	C32.236877,30.452581 32.291809,30.853031 31.917187,30.901369 
	C31.046255,30.938265 30.549948,30.926821 29.855799,30.681067 
	C28.105894,30.293642 26.553831,30.140532 24.996555,29.630684 
	C23.982950,27.628096 22.974554,25.982241 21.966160,24.336388 
	C22.280508,24.089737 22.594856,23.843084 23.195850,23.113064 
	C22.331079,21.730627 21.179663,20.831556 20.028246,19.932486 
	C19.572994,19.342636 19.117741,18.752789 18.253342,17.740414 
	C17.301939,15.879466 16.759686,14.441042 16.217430,13.002619 
	C19.693048,10.445331 22.639847,6.539062 28.008720,9.033725 
	C28.403759,10.155861 28.652323,10.681961 28.900888,11.208060 
z"/>
<path fill="#D5BF67" opacity="1.000000" stroke="none" 
	d="
M25.001766,29.987419 
	C26.553831,30.140532 28.105894,30.293642 29.925415,30.945107 
	C30.121124,32.248856 30.049379,33.054253 29.716919,33.891258 
	C29.283609,33.952339 29.111015,33.981808 28.589762,33.995575 
	C27.549685,34.070240 26.858269,34.160610 25.894764,34.218346 
	C25.356485,35.041775 25.090294,35.897835 24.499977,36.835411 
	C23.155579,37.331642 22.135305,37.746349 20.818684,38.041225 
	C19.648836,37.868977 18.775337,37.816559 17.901838,37.764141 
	C17.594320,37.756100 17.363144,37.619164 16.983828,36.878601 
	C15.821489,36.595245 14.883635,36.786613 13.945780,36.977985 
	C10.161016,37.706188 9.451389,35.312832 9.998716,32.180309 
	C14.062931,32.360634 17.123575,32.220028 18.004047,28.447777 
	C19.250717,32.819805 21.952656,33.258076 25.001766,29.987419 
z"/>
<path fill="#E2C861" opacity="1.000000" stroke="none" 
	d="
M17.997250,28.042107 
	C17.123575,32.220028 14.062931,32.360634 10.277651,31.964809 
	C10.291513,29.125145 10.749399,26.303877 11.257582,23.172705 
	C14.497787,24.103010 16.841312,24.775867 19.589699,25.580971 
	C19.994562,25.713219 20.015890,25.929413 19.993240,25.950684 
	C19.970591,25.971956 19.931555,26.020313 19.618547,26.050535 
	C18.884249,26.713226 18.462957,27.345695 18.029003,27.992893 
	C18.016338,28.007622 17.997250,28.042107 17.997250,28.042107 
z"/>
<path fill="#DDC76E" opacity="1.000000" stroke="none" 
	d="
M24.996555,29.630684 
	C21.952656,33.258076 19.250717,32.819805 18.004047,28.447777 
	C17.997250,28.042107 18.016338,28.007622 18.289322,27.881752 
	C19.018721,27.177357 19.475138,26.598835 19.931555,26.020313 
	C19.931555,26.020313 19.970591,25.971956 20.204515,25.873417 
	C20.698549,25.604195 20.886391,25.374413 21.001961,25.085535 
	C21.069624,24.767868 21.238955,24.519638 21.738056,24.338615 
	C22.974554,25.982241 23.982950,27.628096 24.996555,29.630684 
z"/>
<path fill="#F9F8F8" opacity="1.000000" stroke="none" 
	d="
M15.865273,12.981829 
	C16.759686,14.441042 17.301939,15.879466 17.994503,17.624233 
	C16.939182,18.358929 15.733550,18.787279 14.729799,19.143902 
	C13.905037,17.265583 13.088311,15.405562 12.152607,12.988523 
	C12.033628,12.431504 12.192881,11.996119 12.192881,11.996119 
	C13.299625,12.317759 14.406371,12.639399 15.865273,12.981829 
z"/>
<path fill="#F9F8F8" opacity="1.000000" stroke="none" 
	d="
M20.025951,20.316685 
	C21.179663,20.831556 22.331079,21.730627 23.310181,22.834526 
	C22.099796,22.259863 21.061726,21.480371 20.025951,20.316685 
z"/>
<path fill="#919191" opacity="1.000000" stroke="none" 
	d="
M12.120472,11.651651 
	C12.192881,11.996119 12.033628,12.431504 11.999503,12.660501 
	C11.346228,12.548639 10.727077,12.207781 10.064555,11.597742 
	C10.508409,10.612742 10.995635,9.896923 11.823585,9.200449 
	C12.125560,9.915591 12.086812,10.611387 12.120472,11.651651 
z"/>
<path fill="#FAFAFA" opacity="1.000000" stroke="none" 
	d="
M17.933605,38.072495 
	C18.775337,37.816559 19.648836,37.868977 20.789021,38.251564 
	C21.055708,38.581738 20.956612,38.996155 20.956612,38.996155 
	C20.217442,38.997181 19.478271,38.998211 18.369514,38.999542 
	C17.988407,38.793514 17.976891,38.587177 17.933605,38.072495 
z"/>
<path fill="#FAFAFA" opacity="1.000000" stroke="none" 
	d="
M14.323761,36.986206 
	C14.883635,36.786613 15.821489,36.595245 16.863392,36.707024 
	C16.212208,37.004921 15.456975,36.999672 14.323761,36.986206 
z"/>
<path fill="#FAFAFA" opacity="1.000000" stroke="none" 
	d="
M10.724255,41.600601 
	C10.850750,41.440716 11.069107,41.417572 11.287465,41.394432 
	C11.130349,41.508736 10.973233,41.623039 10.724255,41.600601 
z"/>
<path fill="#F9F8F8" opacity="1.000000" stroke="none" 
	d="
M12.241692,21.011242 
	C12.409551,20.900364 12.578934,20.954741 12.748317,21.009117 
	C12.579949,21.064911 12.411583,21.120705 12.241692,21.011242 
z"/>
<path fill="#FAFAFA" opacity="1.000000" stroke="none" 
	d="
M12.467364,45.449394 
	C12.523289,45.415962 12.411440,45.482822 12.467364,45.449394 
z"/>
<path fill="#D5BF67" opacity="1.000000" stroke="none" 
	d="
M20.719683,25.124828 
	C20.886391,25.374413 20.698549,25.604195 20.227165,25.852146 
	C20.015890,25.929413 19.994562,25.713219 19.985449,25.606237 
	C20.130024,25.387545 20.283714,25.275835 20.719683,25.124828 
z"/>
<path fill="#D2D2D2" opacity="1.000000" stroke="none" 
	d="
M31.914236,16.889118 
	C32.025856,14.792354 32.137474,12.695588 32.249092,10.598824 
	C32.654720,10.554144 33.060349,10.509465 33.465981,10.464786 
	C33.651085,12.326287 33.836189,14.187790 33.691700,16.492519 
	C32.879482,16.920202 32.396858,16.904659 31.914236,16.889118 
z"/>
<path fill="#ABA7A2" opacity="1.000000" stroke="none" 
	d="
M31.582226,16.932388 
	C32.396858,16.904659 32.879482,16.920202 33.723969,16.912479 
	C34.881931,16.983753 35.678040,17.078293 36.846306,17.339497 
	C37.218464,17.506161 37.187302,17.590647 36.801834,17.760630 
	C35.642929,17.990423 34.869495,18.050232 33.734558,18.086792 
	C32.891087,18.073797 32.409111,18.084053 31.613129,18.048458 
	C30.876978,18.030863 30.454830,18.059122 30.032684,18.087381 
	C29.789686,17.783175 29.546686,17.478968 29.303394,16.872105 
	C29.952137,16.704851 30.601175,16.840254 31.582226,16.932388 
z"/>
<path fill="#F9F9F9" opacity="1.000000" stroke="none" 
	d="
M38.012459,9.663246 
	C37.681744,10.175121 37.076794,10.717457 36.471844,11.259792 
	C36.267044,10.967596 36.062241,10.675400 35.857441,10.383204 
	C36.484367,10.153371 37.111290,9.923539 38.012459,9.663246 
z"/>
<path fill="#F9F9F9" opacity="1.000000" stroke="none" 
	d="
M40.954697,11.603754 
	C40.713127,11.207626 40.714882,10.813569 40.745125,10.421711 
	C40.745972,10.410729 41.051395,10.423254 41.214798,10.424818 
	C41.210533,10.818589 41.206264,11.212359 40.954697,11.603754 
z"/>
<path fill="#F5F5F4" opacity="1.000000" stroke="none" 
	d="
M28.930267,10.899184 
	C28.652323,10.681961 28.403759,10.155861 28.160610,9.335711 
	C28.430569,9.557878 28.695108,10.074093 28.930267,10.899184 
z"/>
<path fill="#F9F9F9" opacity="1.000000" stroke="none" 
	d="
M45.466820,12.449375 
	C45.522755,12.415928 45.410885,12.482822 45.466820,12.449375 
z"/>
<path fill="#FDFDFC" opacity="1.000000" stroke="none" 
	d="
M34.096062,18.110043 
	C34.869495,18.050232 35.642929,17.990423 36.786358,17.802914 
	C36.801781,19.840473 36.447208,22.005733 35.708305,24.548958 
	C34.920303,24.904476 34.516636,24.882027 34.075779,24.439924 
	C34.057747,22.050196 34.076904,20.080120 34.096062,18.110043 
z"/>
<path fill="#CFCDC7" opacity="1.000000" stroke="none" 
	d="
M32.112602,29.052479 
	C32.031315,28.302086 31.950026,27.551691 32.285194,26.399132 
	C33.542183,25.998068 34.382713,25.999172 35.223244,26.000277 
	C35.138439,26.761095 35.053635,27.521912 34.704498,28.824759 
	C34.241325,29.882492 34.042480,30.398197 33.583878,30.916065 
	C32.980019,30.896494 32.635914,30.874763 32.291809,30.853031 
	C32.291809,30.853031 32.236877,30.452581 32.334602,30.142941 
	C32.325752,29.573025 32.219177,29.312752 32.112602,29.052479 
z"/>
<path fill="#A7A699" opacity="1.000000" stroke="none" 
	d="
M35.410568,25.860016 
	C34.382713,25.999172 33.542183,25.998068 32.280640,26.021631 
	C31.565775,25.898165 31.365187,25.668550 31.585358,25.152496 
	C32.646221,24.918217 33.379593,24.888897 34.112968,24.859577 
	C34.516636,24.882027 34.920303,24.904476 35.625412,24.890068 
	C35.912136,25.178135 35.802486,25.466982 35.410568,25.860016 
z"/>
<path fill="#AFB393" opacity="1.000000" stroke="none" 
	d="
M33.843636,30.913902 
	C34.042480,30.398197 34.241325,29.882492 34.664856,29.205624 
	C35.357292,29.019690 35.825050,28.994921 36.643150,28.981180 
	C36.551533,29.594007 36.109566,30.195807 35.083729,30.897259 
	C34.281120,30.969244 34.062378,30.941574 33.843636,30.913902 
z"/>
<path fill="#AFB393" opacity="1.000000" stroke="none" 
	d="
M37.624840,28.003578 
	C37.713718,28.179890 37.604839,28.497217 37.244873,28.903889 
	C37.028435,28.654308 37.172867,28.371428 37.624840,28.003578 
z"/>
<path fill="#A1A99A" opacity="1.000000" stroke="none" 
	d="
M33.583878,30.916065 
	C34.062378,30.941574 34.281120,30.969244 34.829700,31.028358 
	C35.159538,31.059803 35.067795,31.499018 35.037956,32.011150 
	C35.002007,32.715954 34.995895,32.908627 34.989788,33.101303 
	C34.989788,33.101303 34.728664,33.254105 34.338688,32.993465 
	C33.308941,33.465782 32.669170,34.198738 32.029400,34.931698 
	C31.530066,35.256050 31.030729,35.580402 30.267059,35.660728 
	C29.994362,34.897682 29.985998,34.378666 29.977634,33.859650 
	C30.049379,33.054253 30.121124,32.248856 30.123255,31.179420 
	C30.549948,30.926821 31.046255,30.938265 31.917187,30.901371 
	C32.635914,30.874763 32.980019,30.896494 33.583878,30.916065 
z"/>
<path fill="#7474B7" opacity="1.000000" stroke="none" 
	d="
M35.321381,33.105206 
	C34.995895,32.908627 35.002007,32.715954 35.033436,32.235451 
	C36.101856,31.874008 37.144951,31.800398 38.583469,31.707441 
	C38.986813,31.893227 38.994732,32.098354 38.661171,32.655403 
	C37.870186,33.090511 37.420681,33.173702 36.971176,33.256893 
	C36.531776,33.207630 36.092377,33.158371 35.321381,33.105206 
z"/>
<path fill="#86867C" opacity="1.000000" stroke="none" 
	d="
M32.100845,35.163853 
	C32.669170,34.198738 33.308941,33.465782 34.187557,32.986870 
	C34.634781,33.668343 34.843155,34.095768 35.131477,34.752037 
	C35.023926,34.986580 34.836426,34.992283 34.111847,35.058929 
	C33.333382,35.369732 33.091999,35.619591 32.850613,35.869453 
	C32.850613,35.869453 32.590786,35.858395 32.461212,35.856663 
	C32.331638,35.854931 32.172287,35.396008 32.100845,35.163853 
z"/>
<path fill="#CAC9C8" opacity="1.000000" stroke="none" 
	d="
M37.203224,33.447548 
	C37.420681,33.173702 37.870186,33.090511 38.660934,32.963326 
	C39.002174,32.919323 39.075703,33.288895 39.137554,33.464664 
	C38.611362,33.639690 38.023319,33.638950 37.203224,33.447548 
z"/>
<path fill="#A1A99A" opacity="1.000000" stroke="none" 
	d="
M33.115112,35.820339 
	C33.091999,35.619591 33.333382,35.369732 33.830631,35.049500 
	C33.850868,35.243164 33.615238,35.507195 33.115112,35.820339 
z"/>
<path fill="#9CADA5" opacity="1.000000" stroke="none" 
	d="
M24.824102,36.753891 
	C25.090294,35.897835 25.356485,35.041775 25.873432,34.474167 
	C26.385412,35.153488 26.646639,35.544369 27.217272,35.987076 
	C28.039377,36.367424 28.552074,36.695946 29.064772,37.024467 
	C28.790239,37.518623 28.515707,38.012783 28.126205,38.767288 
	C27.520353,38.757664 27.029470,38.487686 26.132702,37.841827 
	C25.425911,37.228596 25.125006,36.991245 24.824102,36.753891 
z"/>
<path fill="#8EC6C6" opacity="1.000000" stroke="none" 
	d="
M24.499977,36.835411 
	C25.125006,36.991245 25.425911,37.228596 25.871189,37.714294 
	C24.464689,38.481060 22.913815,38.999477 21.159775,39.257027 
	C20.956612,38.996155 21.055708,38.581738 21.085371,38.371399 
	C22.135305,37.746349 23.155579,37.331642 24.499977,36.835411 
z"/>
<path fill="#A3C1C1" opacity="1.000000" stroke="none" 
	d="
M29.279633,36.962746 
	C28.552074,36.695946 28.039377,36.367424 27.399801,35.761414 
	C27.828091,34.993038 28.383257,34.502155 28.938423,34.011272 
	C29.111015,33.981808 29.283609,33.952339 29.716919,33.891258 
	C29.985998,34.378666 29.994362,34.897682 30.004789,35.807507 
	C29.940624,36.508781 29.769838,36.743019 29.279633,36.962746 
z"/>
<path fill="#D1D1D1" opacity="1.000000" stroke="none" 
	d="
M34.075779,24.439926 
	C33.379593,24.888897 32.646221,24.918217 31.550037,24.921158 
	C31.187227,24.894781 31.095627,24.408213 31.381397,23.910442 
	C31.753824,21.639887 31.840479,19.867098 31.927134,18.094311 
	C32.409111,18.084053 32.891087,18.073797 33.734562,18.086792 
	C34.076904,20.080120 34.057747,22.050196 34.075779,24.439926 
z"/>
<path fill="#F7F6F5" opacity="1.000000" stroke="none" 
	d="
M31.613129,18.048458 
	C31.840479,19.867098 31.753824,21.639887 31.392366,23.663130 
	C30.748913,22.217905 30.380262,20.522224 30.022148,18.456963 
	C30.454830,18.059122 30.876978,18.030863 31.613129,18.048458 
z"/>
<path fill="#A1A99A" opacity="1.000000" stroke="none" 
	d="
M32.109077,29.303833 
	C32.219177,29.312752 32.325752,29.573025 32.305244,29.942984 
	C32.153961,29.886841 32.129753,29.721012 32.109077,29.303833 
z"/>
<path fill="#EEEEEC" opacity="1.000000" stroke="none" 
	d="
M28.589762,33.995575 
	C28.383257,34.502155 27.828091,34.993038 27.090395,35.709583 
	C26.646639,35.544369 26.385412,35.153488 26.145519,34.506794 
	C26.858269,34.160610 27.549685,34.070240 28.589762,33.995575 
z"/>
<path fill="#D5BF67" opacity="1.000000" stroke="none" 
	d="
M19.618547,26.050535 
	C19.475138,26.598835 19.018721,27.177357 18.301985,27.867023 
	C18.462957,27.345695 18.884249,26.713226 19.618547,26.050535 
z"/>
</svg>